# Rhino

mtllib ceiling.mtl
usemtl diffuse_Black
v 325 306 -265
v 325 311 -265
v 325 306 -290
v 325 311 -290
v 325 306 -290
v 325 311 -290
v -5 306 -290
v -5 311 -290
v -5 306 -290
v -5 311 -290
v -5 306 5
v -5 311 5
v -5 306 5
v -5 311 5
v 320 306 5
v 320 311 5
v 320 306 5
v 320 311 5
v 320 306 20
v 320 311 20
v 320 306 20
v 320 311 20
v 682.88775634765625 306 20
v 682.88775634765625 311 20
v 682.88775634765625 306 20
v 682.88775634765625 311 20
v 837 306 -36.507820129394531
v 837 311 -36.507820129394531
v 837 306 -36.507820129394531
v 837 311 -36.507820129394531
v 837 306 -265
v 837 311 -265
v 837 306 -265
v 837 311 -265
v 810 306 -265
v 810 311 -265
v 810 306 -265
v 810 311 -265
v 810 306 -290
v 810 311 -290
v 810 306 -290
v 810 311 -290
v 343 306 -290
v 343 311 -290
v 343 306 -290
v 343 311 -290
v 343 306 -265
v 343 311 -265
v 343 306 -265
v 343 311 -265
v 325 306 -265
v 325 311 -265
v 325 306 -265
v 325 306 -290
v -5 306 -290
v -5 306 5
v 320 306 5
v 320 306 20
v 682.88775634765625 306 20
v 837 306 -36.507820129394531
v 837 306 -265
v 810 306 -265
v 810 306 -290
v 343 306 -290
v 343 306 -265
v 325 311 -265
v 325 311 -290
v -5 311 -290
v -5 311 5
v 320 311 5
v 320 311 20
v 682.88775634765625 311 20
v 837 311 -36.507820129394531
v 837 311 -265
v 810 311 -265
v 810 311 -290
v 343 311 -290
v 343 311 -265
vt 0 0
vt 0 0.50399976968765259
vt 0.011922363191843033 0
vt 0.011922363191843033 0.50399976968765259
vt 0.011922363191843033 0
vt 0.011922363191843033 0.50399976968765259
vt 0.023844726383686066 0
vt 0.023844726383686066 0.50399976968765259
vt 0.023844726383686066 0
vt 0.023844726383686066 0.50399976968765259
vt 0.035767089575529099 0
vt 0.035767089575529099 0.50399976968765259
vt 0.035767089575529099 0
vt 0.035767089575529099 0.50399976968765259
vt 0.7987983226776123 0
vt 0.7987983226776123 0.50399976968765259
vt 0.7987983226776123 0
vt 0.7987983226776123 0.50399976968765259
vt 0.81072068214416504 0
vt 0.81072068214416504 0.50399976968765259
vt 0.81072068214416504 0
vt 0.81072068214416504 0.50399976968765259
vt 0.81283754110336304 0
vt 0.81283754110336304 0.50399976968765259
vt 0.81283754110336304 0
vt 0.81283754110336304 0.50399976968765259
vt 0.82116454839706421 0
vt 0.82116454839706421 0.50399976968765259
vt 0.82116454839706421 0
vt 0.82116454839706421 0.50399976968765259
vt 0.83308690786361694 0
vt 0.83308690786361694 0.50399976968765259
vt 0.83308690786361694 0
vt 0.83308690786361694 0.50399976968765259
vt 0.88554531335830688 0
vt 0.88554531335830688 0.50399976968765259
vt 0.88554531335830688 0
vt 0.88554531335830688 0.50399976968765259
vt 0.89746767282485962 0
vt 0.89746767282485962 0.50399976968765259
vt 0.89746767282485962 0
vt 0.89746767282485962 0.50399976968765259
vt 0.90939003229141235 0
vt 0.90939003229141235 0.50399976968765259
vt 0.90939003229141235 0
vt 0.90939003229141235 0.50399976968765259
vt 0.95707947015762329 0
vt 0.95707947015762329 0.50399976968765259
vt 0.95707947015762329 0
vt 0.95707947015762329 0.50399976968765259
vt 1 0
vt 1 0.50399976968765259
vt 0.22188271582126617 0.96000003814697266
vt 0.22188271582126617 1
vt 0.36489307880401611 1
vt 0.36489307880401611 0.52800023555755615
vt 0.22404953837394714 0.52800023555755615
vt 0.22404953837394714 0.50400024652481079
vt 0.066786795854568481 0.50400024652481079
vt 0 0.59441268444061279
vt 0 0.96000003814697266
vt 0.011700846254825592 0.96000003814697266
vt 0.011700846254825592 1
vt 0.21408215165138245 1
vt 0.21408215165138245 0.96000003814697266
vt 0.22188271582126617 0.54400020837783813
vt 0.22188271582126617 0.50400024652481079
vt 0.36489307880401611 0.50400024652481079
vt 0.36489307880401611 0.97600001096725464
vt 0.22404953837394714 0.97600001096725464
vt 0.22404953837394714 1
vt 0.066786795854568481 1
vt 0 0.909587562084198
vt 0 0.54400020837783813
vt 0.011700846254825592 0.54400020837783813
vt 0.011700846254825592 0.50400024652481079
vt 0.21408215165138245 0.50400024652481079
vt 0.21408215165138245 0.54400020837783813
vn 1 0 0
vn 1 0 0
vn 1 0 0
vn 1 0 0
vn 0 0 -1
vn 0 0 -1
vn 0 0 -1
vn 0 0 -1
vn -1 0 0
vn -1 0 0
vn -1 0 0
vn -1 0 0
vn 0 0 1
vn 0 0 1
vn 0 0 1
vn 0 0 1
vn -1 0 0
vn -1 0 0
vn -1 0 0
vn -1 0 0
vn 0 0 1
vn 0 0 1
vn 0 0 1
vn 0 0 1
vn 0.34425464272499084 0 0.93887633085250854
vn 0.34425464272499084 0 0.93887633085250854
vn 0.34425464272499084 0 0.93887633085250854
vn 0.34425464272499084 0 0.93887633085250854
vn 1 0 0
vn 1 0 0
vn 1 0 0
vn 1 0 0
vn 0 0 -1
vn 0 0 -1
vn 0 0 -1
vn 0 0 -1
vn 1 0 0
vn 1 0 0
vn 1 0 0
vn 1 0 0
vn 0 0 -1
vn 0 0 -1
vn 0 0 -1
vn 0 0 -1
vn -1 0 0
vn -1 0 0
vn -1 0 0
vn -1 0 0
vn 0 0 -1
vn 0 0 -1
vn 0 0 -1
vn 0 0 -1
vn 0 -1 0
vn 0 -1 0
vn 0 -1 0
vn 0 -1 0
vn 0 -1 0
vn 0 -1 0
vn 0 -1 0
vn 0 -1 0
vn 0 -1 0
vn 0 -1 0
vn 0 -1 0
vn 0 -1 0
vn 0 -1 0
vn 0 1 0
vn 0 1 0
vn 0 1 0
vn 0 1 0
vn 0 1 0
vn 0 1 0
vn 0 1 0
vn 0 1 0
vn 0 1 0
vn 0 1 0
vn 0 1 0
vn 0 1 0
vn 0 1 0
f 1/1/1 3/3/3 4/4/4 2/2/2
f 5/5/5 7/7/7 8/8/8 6/6/6
f 9/9/9 11/11/11 12/12/12 10/10/10
f 13/13/13 15/15/15 16/16/16 14/14/14
f 17/17/17 19/19/19 20/20/20 18/18/18
f 21/21/21 23/23/23 24/24/24 22/22/22
f 25/25/25 27/27/27 28/28/28 26/26/26
f 29/29/29 31/31/31 32/32/32 30/30/30
f 33/33/33 35/35/35 36/36/36 34/34/34
f 37/37/37 39/39/39 40/40/40 38/38/38
f 41/41/41 43/43/43 44/44/44 42/42/42
f 45/45/45 47/47/47 48/48/48 46/46/46
f 49/49/49 51/51/51 52/52/52 50/50/50
f 64/64/64 63/63/63 62/62/62
f 59/59/59 62/62/62 60/60/60
f 61/61/61 60/60/60 62/62/62
f 62/62/62 59/59/59 65/65/65
f 65/65/65 64/64/64 62/62/62
f 55/55/55 54/54/54 53/53/53
f 57/57/57 59/59/59 58/58/58
f 56/56/56 53/53/53 57/57/57
f 56/56/56 55/55/55 53/53/53
f 53/53/53 65/65/65 57/57/57
f 65/65/65 59/59/59 57/57/57
f 77/77/77 75/75/75 76/76/76
f 72/72/72 73/73/73 75/75/75
f 74/74/74 75/75/75 73/73/73
f 75/75/75 78/78/78 72/72/72
f 78/78/78 75/75/75 77/77/77
f 68/68/68 66/66/66 67/67/67
f 70/70/70 71/71/71 72/72/72
f 69/69/69 70/70/70 66/66/66
f 69/69/69 66/66/66 68/68/68
f 66/66/66 70/70/70 78/78/78
f 78/78/78 70/70/70 72/72/72
