# Rhino

mtllib floor study room.mtl
usemtl diffuse_0
v 320 0 20
v 320 -5 20
v 320 0 5
v 320 -5 5
v 320 0 5
v 320 -5 5
v -5 0 5
v -5 -5 5
v -5 0 5
v -5 -5 5
v -5 0 -290
v -5 -5 -290
v -5 0 -290
v -5 -5 -290
v 325 0 -290
v 325 -5 -290
v 325 0 -290
v 325 -5 -290
v 325 0 -265
v 325 -5 -265
v 325 0 20
v 325 -5 20
v 325 0 20
v 325 -5 20
v 320 0 20
v 320 -5 20
v 320 0 20
v 320 0 5
v -5 0 5
v -5 0 -290
v 325 0 -290
v 325 0 -265
v 325 0 20
v 320 -5 20
v 320 -5 5
v -5 -5 5
v -5 -5 -290
v 325 -5 -290
v 325 -5 -265
v 325 -5 20
vt 0 0
vt 0 0.50399976968765259
vt 0.01171875 0
vt 0.01171875 0.50399976968765259
vt 0.01171875 0
vt 0.01171875 0.50399976968765259
vt 0.265625 0
vt 0.265625 0.50399976968765259
vt 0.265625 0
vt 0.265625 0.50399976968765259
vt 0.49609375 0
vt 0.49609375 0.50399976968765259
vt 0.49609375 0
vt 0.49609375 0.50399976968765259
vt 0.75390625 0
vt 0.75390625 0.50399976968765259
vt 0.75390625 0
vt 0.75390625 0.50399976968765259
vt 0.7734375 0
vt 0.7734375 0.50399976968765259
vt 0.99609375 0
vt 0.99609375 0.50399976968765259
vt 0.99609375 0
vt 0.99609375 0.50399976968765259
vt 1 0
vt 1 0.50399976968765259
vt 0.25390625 0.50400024652481079
vt 0.25390625 0.52800023555755615
vt 0 0.52800023555755615
vt 0 1
vt 0.2578125 1
vt 0.2578125 0.96000003814697266
vt 0.2578125 0.50400024652481079
vt 0.25390625 1
vt 0.25390625 0.97600001096725464
vt 0 0.97600001096725464
vt 0 0.50400024652481079
vt 0.2578125 0.50400024652481079
vt 0.2578125 0.54400020837783813
vt 0.2578125 1
vn -1 0 0
vn -1 0 0
vn -1 0 0
vn -1 0 0
vn 0 0 1
vn 0 0 1
vn 0 0 1
vn 0 0 1
vn -1 0 0
vn -1 0 0
vn -1 0 0
vn -1 0 0
vn 0 0 -1
vn 0 0 -1
vn 0 0 -1
vn 0 0 -1
vn 1 0 0
vn 1 0 0
vn 1 0 0
vn 1 0 0
vn 1 0 0
vn 1 0 0
vn 0 0 1
vn 0 0 1
vn 0 0 1
vn 0 0 1
vn 0 1 0
vn 0 1 0
vn 0 1 0
vn 0 1 0
vn 0 1 0
vn 0 1 0
vn 0 1 0
vn 0 -1 0
vn 0 -1 0
vn 0 -1 0
vn 0 -1 0
vn 0 -1 0
vn 0 -1 0
vn 0 -1 0
f 1/1/1 3/3/3 4/4/4 2/2/2
f 5/5/5 7/7/7 8/8/8 6/6/6
f 9/9/9 11/11/11 12/12/12 10/10/10
f 13/13/13 15/15/15 16/16/16 14/14/14
f 17/17/17 19/19/19 20/20/20 18/18/18
f 19/19/19 21/21/21 22/22/22 20/20/20
f 23/23/23 25/25/25 26/26/26 24/24/24
f 28/28/28 32/32/32 29/29/29
f 30/30/30 29/29/29 32/32/32
f 32/32/32 28/28/28 33/33/33
f 33/33/33 28/28/28 27/27/27
f 31/31/31 30/30/30 32/32/32
f 35/35/35 36/36/36 39/39/39
f 37/37/37 39/39/39 36/36/36
f 39/39/39 40/40/40 35/35/35
f 40/40/40 34/34/34 35/35/35
f 38/38/38 39/39/39 37/37/37
