# Rhino

mtllib floor wellness room.mtl
usemtl diffuse_0
v 325 0 20
v 325 -5 20
v 325 0 -265
v 325 -5 -265
v 325 0 -265
v 325 -5 -265
v 343 0 -265
v 343 -5 -265
v 343 0 -265
v 343 -5 -265
v 343 0 -290
v 343 -5 -290
v 343 0 -290
v 343 -5 -290
v 810 0 -290
v 810 -5 -290
v 810 0 -290
v 810 -5 -290
v 810 0 -265
v 810 -5 -265
v 810 0 -265
v 810 -5 -265
v 837 0 -265
v 837 -5 -265
v 837 0 -265
v 837 -5 -265
v 837 0 -36.507820129394531
v 837 -5 -36.507820129394531
v 837 0 -36.507820129394531
v 837 -5 -36.507820129394531
v 682.88775634765625 0 20
v 682.88775634765625 -5 20
v 682.88775634765625 0 20
v 682.88775634765625 -5 20
v 325 0 20
v 325 -5 20
v 325 0 20
v 325 0 -265
v 343 0 -265
v 343 0 -290
v 810 0 -290
v 810 0 -265
v 837 0 -265
v 837 0 -36.507820129394531
v 682.88775634765625 0 20
v 325 -5 20
v 325 -5 -265
v 343 -5 -265
v 343 -5 -290
v 810 -5 -290
v 810 -5 -265
v 837 -5 -265
v 837 -5 -36.507820129394531
v 682.88775634765625 -5 20
vt 0 0
vt 0 0.50399976968765259
vt 0.178400918841362 0
vt 0.178400918841362 0.50399976968765259
vt 0.178400918841362 0
vt 0.178400918841362 0.50399976968765259
vt 0.18966835737228394 0
vt 0.18966835737228394 0.50399976968765259
vt 0.18966835737228394 0
vt 0.18966835737228394 0.50399976968765259
vt 0.20531755685806274 0
vt 0.20531755685806274 0.50399976968765259
vt 0.20531755685806274 0
vt 0.20531755685806274 0.50399976968765259
vt 0.49764469265937805 0
vt 0.49764469265937805 0.50399976968765259
vt 0.49764469265937805 0
vt 0.49764469265937805 0.50399976968765259
vt 0.51329386234283447 0
vt 0.51329386234283447 0.50399976968765259
vt 0.51329386234283447 0
vt 0.51329386234283447 0.50399976968765259
vt 0.53019505739212036 0
vt 0.53019505739212036 0.50399976968765259
vt 0.53019505739212036 0
vt 0.53019505739212036 0.50399976968765259
vt 0.67322385311126709 0
vt 0.67322385311126709 0.50399976968765259
vt 0.67322385311126709 0
vt 0.67322385311126709 0.50399976968765259
vt 0.77597367763519287 0
vt 0.77597367763519287 0.50399976968765259
vt 0.77597367763519287 0
vt 0.77597367763519287 0.50399976968765259
vt 1 0
vt 1 0.50399976968765259
vt 0 0.50400024652481079
vt 0 0.96000003814697266
vt 0.011267426423728466 0.96000003814697266
vt 0.011267426423728466 1
vt 0.30359455943107605 1
vt 0.30359455943107605 0.96000003814697266
vt 0.32049569487571716 0.96000003814697266
vt 0.32049569487571716 0.59441268444061279
vt 0.22402635216712952 0.50400024652481079
vt 0 1
vt 0 0.54400020837783813
vt 0.011267426423728466 0.54400020837783813
vt 0.011267426423728466 0.50400024652481079
vt 0.30359455943107605 0.50400024652481079
vt 0.30359455943107605 0.54400020837783813
vt 0.32049569487571716 0.54400020837783813
vt 0.32049569487571716 0.909587562084198
vt 0.22402635216712952 1
vn -1 0 0
vn -1 0 0
vn -1 0 0
vn -1 0 0
vn 0 0 -1
vn 0 0 -1
vn 0 0 -1
vn 0 0 -1
vn -1 0 0
vn -1 0 0
vn -1 0 0
vn -1 0 0
vn 0 0 -1
vn 0 0 -1
vn 0 0 -1
vn 0 0 -1
vn 1 0 0
vn 1 0 0
vn 1 0 0
vn 1 0 0
vn 0 0 -1
vn 0 0 -1
vn 0 0 -1
vn 0 0 -1
vn 1 0 0
vn 1 0 0
vn 1 0 0
vn 1 0 0
vn 0.34425464272499084 0 0.93887633085250854
vn 0.34425464272499084 0 0.93887633085250854
vn 0.34425464272499084 0 0.93887633085250854
vn 0.34425464272499084 0 0.93887633085250854
vn 0 0 1
vn 0 0 1
vn 0 0 1
vn 0 0 1
vn 0 1 0
vn 0 1 0
vn 0 1 0
vn 0 1 0
vn 0 1 0
vn 0 1 0
vn 0 1 0
vn 0 1 0
vn 0 1 0
vn 0 -1 0
vn 0 -1 0
vn 0 -1 0
vn 0 -1 0
vn 0 -1 0
vn 0 -1 0
vn 0 -1 0
vn 0 -1 0
vn 0 -1 0
f 1/1/1 3/3/3 4/4/4 2/2/2
f 5/5/5 7/7/7 8/8/8 6/6/6
f 9/9/9 11/11/11 12/12/12 10/10/10
f 13/13/13 15/15/15 16/16/16 14/14/14
f 17/17/17 19/19/19 20/20/20 18/18/18
f 21/21/21 23/23/23 24/24/24 22/22/22
f 25/25/25 27/27/27 28/28/28 26/26/26
f 29/29/29 31/31/31 32/32/32 30/30/30
f 33/33/33 35/35/35 36/36/36 34/34/34
f 45/45/45 39/39/39 37/37/37
f 38/38/38 37/37/37 39/39/39
f 39/39/39 41/41/41 40/40/40
f 39/39/39 45/45/45 42/42/42
f 45/45/45 44/44/44 42/42/42
f 43/43/43 42/42/42 44/44/44
f 41/41/41 39/39/39 42/42/42
f 54/54/54 46/46/46 48/48/48
f 47/47/47 48/48/48 46/46/46
f 48/48/48 49/49/49 50/50/50
f 48/48/48 51/51/51 54/54/54
f 54/54/54 51/51/51 53/53/53
f 52/52/52 53/53/53 51/51/51
f 50/50/50 51/51/51 48/48/48
